# xmcd
# 
# Track frame offsets:
#     150
#     30060
#     44583
#     57400
#     69431
#     82594
#     92425
#     103464
#     111546
#     125457
#     138487
#     161017
# 
# Disc length: 2297
# 
# Revision: 2
# Processed by: cddbd v1.5.2PL0 Copyright (c) Steve Scherf et al.
# Submitted via: fre:ac v1.0.31
# 
DISCID=9d08f70c
DTITLE=Various Artist - Country Classics [CD2]
DYEAR=0
DGENRE=Country
TTITLE0=Asleep At The Wheel - Hod Rod Lincoln (Live)
TTITLE1=Tanya Tucker - Can I See You Tonight (Live)
TTITLE2=T. G. Sheppard - Devil In the Bottle
TTITLE3=Moe Bandy - She's Not Cheatin', She's Getting Even
TTITLE4=Doug Stone - Fourteen Minutes Old
TTITLE5=Lynn Anderson - What A Man My Man Is
TTITLE6=Merle Haggard - Mama Tried
TTITLE7=Willie Nelson - Things To Remember
TTITLE8=Lacy J. Dalton - Tennessee Waltz
TTITLE9=Exile - It'll Be Me
TTITLE10=Restless Heart - Fast Movin' Train (Live)
TTITLE11=Willie Nelson - Touch Me
EXTD=
EXTT0=
EXTT1=
EXTT2=
EXTT3=
EXTT4=
EXTT5=
EXTT6=
EXTT7=
EXTT8=
EXTT9=
EXTT10=
EXTT11=
PLAYORDER=
